<svg width="170" height="38" viewBox="0 0 170 38" fill="none" xmlns="http://www.w3.org/2000/svg">
<path d="M26.2083 26.7083H20.0417M32.358 15.9167C32.375 16.8062 32.375 17.8229 32.375 19C32.375 23.3171 32.375 25.4756 31.5348 27.1245C30.7958 28.5749 29.6166 29.7541 28.1662 30.4932C26.5173 31.3333 24.3587 31.3333 20.0417 31.3333H16.9583C12.6413 31.3333 10.4827 31.3333 8.83382 30.4932C7.38341 29.7541 6.20418 28.5749 5.46516 27.1245C4.625 25.4756 4.625 23.3171 4.625 19C4.625 17.8229 4.625 16.8062 4.64203 15.9167M32.358 15.9167C32.3125 13.5437 32.1459 12.0748 31.5348 10.8755C30.7958 9.42506 29.6166 8.24584 28.1662 7.50681C26.5173 6.66666 24.3587 6.66666 20.0417 6.66666H16.9583C12.6413 6.66666 10.4827 6.66666 8.83382 7.50681C7.38341 8.24584 6.20418 9.42506 5.46516 10.8755C4.85408 12.0748 4.68746 13.5437 4.64203 15.9167M32.358 15.9167H4.64203" stroke="#0177FB" stroke-width="3" stroke-linecap="round"/>
<path d="M49.5511 10.748C51.3111 10.748 52.8551 11.092 54.1831 11.78C55.5271 12.468 56.5591 13.452 57.2791 14.732C58.0151 15.996 58.3831 17.468 58.3831 19.148C58.3831 20.828 58.0151 22.3 57.2791 23.564C56.5591 24.812 55.5271 25.78 54.1831 26.468C52.8551 27.156 51.3111 27.5 49.5511 27.5H43.6951V10.748H49.5511ZM49.4311 24.644C51.1911 24.644 52.5511 24.164 53.5111 23.204C54.4711 22.244 54.9511 20.892 54.9511 19.148C54.9511 17.404 54.4711 16.044 53.5111 15.068C52.5511 14.076 51.1911 13.58 49.4311 13.58H47.0551V24.644H49.4311ZM66.8022 27.716C65.5222 27.716 64.3702 27.436 63.3462 26.876C62.3222 26.3 61.5142 25.492 60.9222 24.452C60.3462 23.412 60.0582 22.212 60.0582 20.852C60.0582 19.492 60.3542 18.292 60.9462 17.252C61.5542 16.212 62.3782 15.412 63.4182 14.852C64.4582 14.276 65.6182 13.988 66.8982 13.988C68.1782 13.988 69.3382 14.276 70.3782 14.852C71.4182 15.412 72.2342 16.212 72.8262 17.252C73.4342 18.292 73.7382 19.492 73.7382 20.852C73.7382 22.212 73.4262 23.412 72.8022 24.452C72.1942 25.492 71.3622 26.3 70.3062 26.876C69.2662 27.436 68.0982 27.716 66.8022 27.716ZM66.8022 24.788C67.4102 24.788 67.9782 24.644 68.5062 24.356C69.0502 24.052 69.4822 23.604 69.8022 23.012C70.1222 22.42 70.2822 21.7 70.2822 20.852C70.2822 19.588 69.9462 18.62 69.2742 17.948C68.6182 17.26 67.8102 16.916 66.8502 16.916C65.8902 16.916 65.0822 17.26 64.4262 17.948C63.7862 18.62 63.4662 19.588 63.4662 20.852C63.4662 22.116 63.7782 23.092 64.4022 23.78C65.0422 24.452 65.8422 24.788 66.8022 24.788ZM92.7149 14.012C94.3469 14.012 95.6589 14.516 96.6509 15.524C97.6589 16.516 98.1629 17.908 98.1629 19.7V27.5H94.8029V20.156C94.8029 19.116 94.5389 18.324 94.0109 17.78C93.4829 17.22 92.7629 16.94 91.8509 16.94C90.9389 16.94 90.2109 17.22 89.6669 17.78C89.1389 18.324 88.8749 19.116 88.8749 20.156V27.5H85.5149V20.156C85.5149 19.116 85.2509 18.324 84.7229 17.78C84.1949 17.22 83.4749 16.94 82.5629 16.94C81.6349 16.94 80.8989 17.22 80.3549 17.78C79.8269 18.324 79.5629 19.116 79.5629 20.156V27.5H76.2029V14.204H79.5629V15.812C79.9949 15.252 80.5469 14.812 81.2189 14.492C81.9069 14.172 82.6589 14.012 83.4749 14.012C84.5149 14.012 85.4429 14.236 86.2589 14.684C87.0749 15.116 87.7069 15.74 88.1549 16.556C88.5869 15.788 89.2109 15.172 90.0269 14.708C90.8589 14.244 91.7549 14.012 92.7149 14.012ZM104.711 16.124C105.143 15.516 105.735 15.012 106.487 14.612C107.255 14.196 108.127 13.988 109.103 13.988C110.239 13.988 111.263 14.268 112.175 14.828C113.103 15.388 113.831 16.188 114.359 17.228C114.903 18.252 115.175 19.444 115.175 20.804C115.175 22.164 114.903 23.372 114.359 24.428C113.831 25.468 113.103 26.276 112.175 26.852C111.263 27.428 110.239 27.716 109.103 27.716C108.127 27.716 107.263 27.516 106.511 27.116C105.775 26.716 105.175 26.212 104.711 25.604V33.836H101.351V14.204H104.711V16.124ZM111.743 20.804C111.743 20.004 111.575 19.316 111.239 18.74C110.919 18.148 110.487 17.7 109.943 17.396C109.415 17.092 108.839 16.94 108.215 16.94C107.607 16.94 107.031 17.1 106.487 17.42C105.959 17.724 105.527 18.172 105.191 18.764C104.871 19.356 104.711 20.052 104.711 20.852C104.711 21.652 104.871 22.348 105.191 22.94C105.527 23.532 105.959 23.988 106.487 24.308C107.031 24.612 107.607 24.764 108.215 24.764C108.839 24.764 109.415 24.604 109.943 24.284C110.487 23.964 110.919 23.508 111.239 22.916C111.575 22.324 111.743 21.62 111.743 20.804ZM129.977 20.564C129.977 21.044 129.945 21.476 129.881 21.86H120.161C120.241 22.82 120.577 23.572 121.169 24.116C121.761 24.66 122.489 24.932 123.353 24.932C124.601 24.932 125.489 24.396 126.017 23.324H129.641C129.257 24.604 128.521 25.66 127.433 26.492C126.345 27.308 125.009 27.716 123.425 27.716C122.145 27.716 120.993 27.436 119.969 26.876C118.961 26.3 118.169 25.492 117.593 24.452C117.033 23.412 116.753 22.212 116.753 20.852C116.753 19.476 117.033 18.268 117.593 17.228C118.153 16.188 118.937 15.388 119.945 14.828C120.953 14.268 122.113 13.988 123.425 13.988C124.689 13.988 125.817 14.26 126.809 14.804C127.817 15.348 128.593 16.124 129.137 17.132C129.697 18.124 129.977 19.268 129.977 20.564ZM126.497 19.604C126.481 18.74 126.169 18.052 125.561 17.54C124.953 17.012 124.209 16.748 123.329 16.748C122.497 16.748 121.793 17.004 121.217 17.516C120.657 18.012 120.313 18.708 120.185 19.604H126.497ZM136.341 16.964V23.396C136.341 23.844 136.445 24.172 136.653 24.38C136.877 24.572 137.245 24.668 137.757 24.668H139.317V27.5H137.205C134.373 27.5 132.957 26.124 132.957 23.372V16.964H131.373V14.204H132.957V10.916H136.341V14.204H139.317V16.964H136.341ZM149.606 27.5L145.094 21.836V27.5H141.734V9.74H145.094V19.844L149.558 14.204H153.926L148.07 20.876L153.974 27.5H149.606ZM168.302 14.204V27.5H164.918V25.82C164.486 26.396 163.918 26.852 163.214 27.188C162.526 27.508 161.774 27.668 160.958 27.668C159.918 27.668 158.998 27.452 158.198 27.02C157.398 26.572 156.766 25.924 156.302 25.076C155.854 24.212 155.63 23.188 155.63 22.004V14.204H158.99V21.524C158.99 22.58 159.254 23.396 159.782 23.972C160.31 24.532 161.03 24.812 161.942 24.812C162.87 24.812 163.598 24.532 164.126 23.972C164.654 23.396 164.918 22.58 164.918 21.524V14.204H168.302Z" fill="#0177FB"/>
</svg>
