<svg id="Layer_1" data-name="Layer 1" xmlns="http://www.w3.org/2000/svg" xmlns:xlink="http://www.w3.org/1999/xlink" viewBox="0 0 551.08 236.27"><defs><style>.cls-1{fill:url(#linear-gradient);}.cls-2{fill:#5b6f95;}.cls-3{fill:url(#linear-gradient-2);}.cls-4{fill:url(#linear-gradient-3);}.cls-5{fill:url(#linear-gradient-4);}.cls-6{fill:url(#linear-gradient-5);}.cls-7{fill:#e0e9ff;}.cls-8{fill:url(#linear-gradient-6);}.cls-9{fill:url(#linear-gradient-7);}.cls-10{fill:#fff;}.cls-11{fill:url(#linear-gradient-8);}.cls-12{fill:#5a6d93;}.cls-13{opacity:0.2;}.cls-14{fill:url(#linear-gradient-9);}.cls-15{fill:url(#linear-gradient-10);}.cls-16{fill:url(#linear-gradient-11);}</style><linearGradient id="linear-gradient" x1="582.23" y1="374.61" x2="692.64" y2="374.61" gradientUnits="userSpaceOnUse"><stop offset="0" stop-color="#4bd6ee"/><stop offset="1" stop-color="#b7e0fc"/></linearGradient><linearGradient id="linear-gradient-2" x1="671.16" y1="357.39" x2="685.03" y2="357.39" gradientUnits="userSpaceOnUse"><stop offset="0" stop-color="#f57cd6"/><stop offset="1" stop-color="#794bf6"/></linearGradient><linearGradient id="linear-gradient-3" x1="232.46" y1="211.79" x2="293.48" y2="211.79" xlink:href="#linear-gradient-2"/><linearGradient id="linear-gradient-4" x1="589.84" y1="357.39" x2="603.71" y2="357.39" xlink:href="#linear-gradient-2"/><linearGradient id="linear-gradient-5" x1="563.27" y1="225.53" x2="533.3" y2="263.45" gradientUnits="userSpaceOnUse"><stop offset="0" stop-color="#469ffb"/><stop offset="1" stop-color="#2450b6"/></linearGradient><linearGradient id="linear-gradient-6" x1="561.44" y1="188.85" x2="713.43" y2="188.85" xlink:href="#linear-gradient-5"/><linearGradient id="linear-gradient-7" x1="509.2" y1="231.83" x2="634.64" y2="231.83" xlink:href="#linear-gradient-5"/><linearGradient id="linear-gradient-8" x1="634.16" y1="265.51" x2="694.09" y2="265.51" xlink:href="#linear-gradient"/><linearGradient id="linear-gradient-9" x1="424.02" y1="104.54" x2="461.8" y2="482.35" xlink:href="#linear-gradient-2"/><linearGradient id="linear-gradient-10" x1="786.81" y1="68.27" x2="824.59" y2="446.07" xlink:href="#linear-gradient-2"/><linearGradient id="linear-gradient-11" x1="894.38" y1="57.51" x2="932.16" y2="435.32" xlink:href="#linear-gradient-2"/></defs><path class="cls-1" d="M689,378.44c-2.22,1.6-5.18,2-8.39-2.45a8.84,8.84,0,0,1-1.33-2.85,26.61,26.61,0,0,0-2.7-6.33c-1.8-3-4.57-5.82-8.6-6v37.41a5.77,5.77,0,0,1-5.76,5.78h-8.45a5.77,5.77,0,0,1-5.76-5.78v-11.6H626.89v11.6a5.77,5.77,0,0,1-5.76,5.78h-8.45a5.76,5.76,0,0,1-5.75-5.78V360.83c-7.19.27-10.35,9-11.3,12.31A9.29,9.29,0,0,1,594.3,376c-3.22,4.42-6.18,4.05-8.39,2.45a9.31,9.31,0,0,1-3.53-9.16c1.66-9.51,6.56-15.3,11.55-18.82a30,30,0,0,1,17.28-5.27h52.45a30,30,0,0,1,17.28,5.27A28,28,0,0,1,685,354a28.61,28.61,0,0,1,7.47,15.3A9.33,9.33,0,0,1,689,378.44Z" transform="translate(-374.46 -167.75)"/><path class="cls-2" d="M685,354l-8.45,12.83a12.65,12.65,0,0,0-5.42-5.2,7.86,7.86,0,0,0-3.2-.78v37.36H648V386.66H637.45v-19l0,19H626.89v11.52h-20V360.82a7.86,7.86,0,0,0-3.2.78,12.42,12.42,0,0,0-5.39,5.2L589.85,354a28.24,28.24,0,0,1,4.08-3.5,30.1,30.1,0,0,1,4.33-2.51,30.79,30.79,0,0,1,13-2.75h19a7.21,7.21,0,0,0,14.41,0h19a29.05,29.05,0,0,1,17.29,5.26A28.24,28.24,0,0,1,685,354Z" transform="translate(-374.46 -167.75)"/><path class="cls-3" d="M685,354l-8.48,12.83a12.5,12.5,0,0,0-5.39-5.21L676.61,348a27,27,0,0,1,4.33,2.48A28,28,0,0,1,685,354Z" transform="translate(-374.46 -167.75)"/><polygon class="cls-4" points="293.49 199.89 293.49 223.68 273.52 223.68 273.52 218.91 252.43 218.91 252.43 223.68 232.46 223.68 232.46 199.89 293.49 199.89"/><path class="cls-5" d="M589.84,354l8.48,12.83a12.61,12.61,0,0,1,5.39-5.21L598.26,348a27.48,27.48,0,0,0-4.33,2.48A29,29,0,0,0,589.84,354Z" transform="translate(-374.46 -167.75)"/><path class="cls-6" d="M547.56,241.24,516.82,250l-7.62,1.45s-8.41,12.66,56.06,14.07l21-48.53Z" transform="translate(-374.46 -167.75)"/><path class="cls-7" d="M727.13,257.77c0,49.71-40.16,90-89.69,90s-89.7-40.3-89.7-90a89.7,89.7,0,1,1,179.39,0Z" transform="translate(-374.46 -167.75)"/><path class="cls-8" d="M713.43,210h-152a85.77,85.77,0,0,1,5-7.18c.38-.49.75-1,1.16-1.45a89.44,89.44,0,0,1,140,.35c.31.36.6.73.87,1.1A85.77,85.77,0,0,1,713.43,210Z" transform="translate(-374.46 -167.75)"/><path class="cls-9" d="M634.64,210h-73.2L509.2,251.44S602.4,268.33,634.64,210Z" transform="translate(-374.46 -167.75)"/><ellipse class="cls-10" cx="289.67" cy="97.76" rx="45.91" ry="46.07"/><path class="cls-11" d="M694.09,265.51a30,30,0,1,1-30-30.07A30,30,0,0,1,694.09,265.51Z" transform="translate(-374.46 -167.75)"/><path class="cls-12" d="M664.48,286.86A19,19,0,1,1,685.2,266,19,19,0,0,1,664.48,286.86Z" transform="translate(-374.46 -167.75)"/><path class="cls-10" d="M670.66,265.67a6.33,6.33,0,1,1,7.58-7.63A6.27,6.27,0,0,1,670.66,265.67Z" transform="translate(-374.46 -167.75)"/><path class="cls-10" d="M661.07,280.32a3,3,0,1,1,3.56-3.58A3,3,0,0,1,661.07,280.32Z" transform="translate(-374.46 -167.75)"/><path class="cls-10" d="M616.27,339c6.75-1,13.84-3.66,21.18-3.66s14.43,2.69,21.18,3.67a2.1,2.1,0,0,0,1.39-3.87C653.48,331,645.75,328,637.45,328s-16.06,3.07-22.61,7.21A2.1,2.1,0,0,0,616.27,339Z" transform="translate(-374.46 -167.75)"/><g class="cls-13"><path class="cls-10" d="M570.85,202.06a.73.73,0,0,1-.73.72h-3.69c.38-.49.75-1,1.16-1.45h2.53A.72.72,0,0,1,570.85,202.06Z" transform="translate(-374.46 -167.75)"/><path class="cls-10" d="M595.76,201.33h-6.9a.73.73,0,0,0,0,1.45h6.9a.73.73,0,1,0,0-1.45Z" transform="translate(-374.46 -167.75)"/><path class="cls-10" d="M629.79,201.33h-6.41a.73.73,0,1,0,0,1.45h6.41a.73.73,0,0,0,0-1.45Z" transform="translate(-374.46 -167.75)"/><path class="cls-10" d="M615.49,201.33H607.6a.73.73,0,1,0,0,1.45h7.89a.73.73,0,0,0,0-1.45Z" transform="translate(-374.46 -167.75)"/><path class="cls-10" d="M585.9,201.33H578a.73.73,0,0,0,0,1.45h7.89a.73.73,0,0,0,0-1.45Z" transform="translate(-374.46 -167.75)"/><path class="cls-10" d="M704.74,201.33h-2.47a.73.73,0,0,0,0,1.45h2.47a.73.73,0,0,0,0-1.45Z" transform="translate(-374.46 -167.75)"/><path class="cls-10" d="M645.07,201.33H633.24a.73.73,0,0,0,0,1.45h11.83a.73.73,0,1,0,0-1.45Z" transform="translate(-374.46 -167.75)"/><path class="cls-10" d="M694.38,201.33H682.55a.73.73,0,1,0,0,1.45h11.83a.73.73,0,1,0,0-1.45Z" transform="translate(-374.46 -167.75)"/><path class="cls-10" d="M670.71,201.33h-6.9a.73.73,0,0,0,0,1.45h6.9a.73.73,0,1,0,0-1.45Z" transform="translate(-374.46 -167.75)"/><path class="cls-10" d="M660.85,201.33H653a.73.73,0,0,0,0,1.45h7.89a.73.73,0,0,0,0-1.45Z" transform="translate(-374.46 -167.75)"/><path class="cls-10" d="M708.44,202.78h-.25a.72.72,0,0,1-.72-.72.74.74,0,0,1,.1-.38C707.88,202,708.17,202.41,708.44,202.78Z" transform="translate(-374.46 -167.75)"/></g><path class="cls-14" d="M374.46,312.72Q401.75,277,429.77,241t55.61-71.73V302h28.77v10.71H485.38V366h-11V312.72Zm100-113.4q-19,25.31-39.15,51.49L395.81,302h78.6Z" transform="translate(-374.46 -167.75)"/><path class="cls-15" d="M740.87,312.72Q768.16,277,796.18,241t55.61-71.73V302h28.77v10.71H851.79V366h-11V312.72Zm100-113.4q-19,25.31-39.15,51.49L762.22,302h78.6Z" transform="translate(-374.46 -167.75)"/><path class="cls-16" d="M916.61,366a8.92,8.92,0,0,1-8.63-9,8.84,8.84,0,0,1,2.68-6.72,8.44,8.44,0,0,1,6-2.53,8.9,8.9,0,0,1,8.93,9.25,8.49,8.49,0,0,1-2.68,6.43A8.82,8.82,0,0,1,916.61,366Zm-5.36-196.74H922V323.57H911.25Z" transform="translate(-374.46 -167.75)"/>
</svg>