<svg width="23" height="22" viewBox="0 0 23 22" fill="none" xmlns="http://www.w3.org/2000/svg">
<path d="M11.3104 7.06206C11.6825 7.06206 12.0393 6.93319 12.3024 6.70379C12.5654 6.4744 12.7132 6.16328 12.7132 5.83887C12.7132 5.51446 12.5654 5.20333 12.3024 4.97394C12.0393 4.74455 11.6825 4.61567 11.3104 4.61567C10.9383 4.61567 10.5815 4.74455 10.3184 4.97394C10.0553 5.20333 9.90754 5.51446 9.90754 5.83887C9.90754 6.16328 10.0553 6.4744 10.3184 6.70379C10.5815 6.93319 10.9383 7.06206 11.3104 7.06206ZM12.6871 1.28044C12.2979 1.0047 11.8118 0.854187 11.3104 0.854187C10.809 0.854187 10.3228 1.0047 9.93372 1.28044L0.57761 7.91014C-0.559639 8.71908 0.0950275 10.3239 1.56148 10.3239H1.95802V17.1738C0.846958 17.6679 0.0875454 18.6742 0.0875454 19.8371V20.9249C0.0875454 21.1412 0.186079 21.3486 0.36147 21.5015C0.536861 21.6544 0.774742 21.7404 1.02278 21.7404H21.598C21.846 21.7404 22.0839 21.6544 22.2593 21.5015C22.4347 21.3486 22.5332 21.1412 22.5332 20.9249V19.8371C22.5332 18.6759 21.7738 17.6679 20.6628 17.1738V10.3239H21.0593C22.5258 10.3239 23.1804 8.71744 22.0413 7.91014L12.6889 1.27881L12.6871 1.28044ZM11.1159 2.54603C11.1715 2.50684 11.2408 2.48546 11.3123 2.48546C11.3838 2.48546 11.4531 2.50684 11.5087 2.54603L20.1783 8.69298H2.4406L11.1159 2.5444V2.54603ZM18.7923 16.8476H16.9218V10.3239H18.7923V16.8476ZM15.0513 16.8476H12.2456V10.3239H15.0513V16.8476ZM10.3752 16.8476H7.56944V10.3239H10.3752V16.8476ZM19.1047 18.4785C19.9651 18.4785 20.6628 19.0869 20.6628 19.8371V20.1094H1.95802V19.8371C1.95802 19.0869 2.65571 18.4785 3.51612 18.4785H19.1047ZM5.69897 16.8476H3.82849V10.3239H5.69897V16.8476Z" fill="white"/>
</svg>
